<svg width="37" height="36" viewBox="0 0 37 36" fill="none" xmlns="http://www.w3.org/2000/svg">
<path d="M36.1138 0C36.1138 3.31102 34.7695 6.31033 32.5963 8.48398C30.4724 10.6071 27.5485 11.9466 24.3166 11.9972H0L12.0545 0H36.1138Z" fill="#2F50C1"/>
<path d="M36.1496 23.9103L24.002 36.0001H0.543415V35.9749L0.536255 35.9707V35.9285C0.536255 35.5115 0.62935 32.5964 2.38091 29.7993C3.27438 28.3755 4.57562 26.9812 6.53485 25.9028C8.32937 24.917 12.1135 23.9987 15.229 24.0156L15.1364 27.9964L19.8404 23.5017L15.3436 18.7963L15.3293 19.4408L15.2505 22.8234C14.269 22.7897 12.7584 22.8066 11.0393 23.1436L1.06534 13.2063H25.3963L36.1496 23.9103Z" fill="#2F50C1"/>
</svg>
